PathFileType	4	(X/Y/Z)	C:\Users\WrightLab\Desktop\Jo\P5V134.trc
DataRate	CameraRate	NumFrames	NumMarkers	Units	OrigDataRate	OrigDataStartFrame	OrigNumFrames
100.00	100.00	       67	19	mm	100.00	463	       529
Frame#	Time	Headset_Front			Headset_Back			Headset_Left			Headset_Right			Left_Shoulder			Right_Shoulder			Sternum			C7			Left Elbow			Right Elbow			Left Wrist			Right Wrist			Left ASIS			Right ASIS			S2			Left Knee			Right Knee			Left Ankle			Right Ankle			
		X1	Y1	Z1	X2	Y2	Z2	X3	Y3	Z3	X4	Y4	Z4	X5	Y5	Z5	X6	Y6	Z6	X7	Y7	Z7	X8	Y8	Z8	X9	Y9	Z9	X10	Y10	Z10	X11	Y11	Z11	X12	Y12	Z12	X13	Y13	Z13	X14	Y14	Z14	X15	Y15	Z15	X16	Y16	Z16	X17	Y17	Z17	X18	Y18	Z18	X19	Y19	Z19	

463	4.620																																														-497.67435	524.96124	1763.34290										
464	4.630																																														-497.01343	524.69092	1766.43958										
465	4.640																																														-495.61670	523.72638	1770.21765										
466	4.650																																														-494.50269	521.80347	1777.42200										
467	4.660																																														-492.16196	522.28754	1783.30627										
468	4.670																																														-489.25540	521.86786	1787.87329										
469	4.680																																														-485.91693	521.07611	1792.24121										
470	4.690																																														-482.30115	520.37958	1798.56885										
471	4.700																																														-478.17166	520.54510	1804.06848										
472	4.710																																														-474.00912	521.88165	1808.04871										
473	4.720																																														-470.73801	522.05585	1812.66199										
474	4.730																																														-467.95786	524.08551	1818.14929										
475	4.740																																														-466.36459	527.23944	1821.34888										
476	4.750																																														-465.91495	528.90540	1827.75769										
477	4.760																																														-466.68787	531.11206	1832.06897										
478	4.770																																														-467.25406	532.51801	1835.87097										
479	4.780																																														-467.91058	536.79376	1837.79736										
480	4.790																																														-468.34705	538.26196	1841.65967										
481	4.800																																														-468.69476	542.17163	1841.47595										
482	4.810																																														-471.84662	543.30627	1842.08521										
483	4.820																																														-475.30161	546.27191	1838.48193										
484	4.830																																														-479.69617	545.83459	1838.48120										
485	4.840																																														-484.81296	544.30139	1838.95520										
486	4.850																																														-490.40106	545.39587	1836.71143										
487	4.860																																														-496.88370	544.44513	1837.85986										
488	4.870																																														-503.39935	543.52240	1838.91650										
489	4.880																																														-509.25012	544.75415	1840.85657										
490	4.890																																														-516.65576	544.79169	1842.45459										
491	4.900																																														-523.36053	544.94006	1845.40955										
492	4.910																																														-530.36115	545.51886	1848.08374										
493	4.920																																														-537.19385	544.67596	1852.26245										
494	4.930																																														-544.98102	546.90271	1855.25793										
495	4.940																																														-552.15637	547.12054	1860.51892										
496	4.950																																														-559.18915	547.94318	1866.28345										
497	4.960																																														-566.06171	548.91205	1872.99597										
498	4.970																																														-572.56207	549.24677	1876.19507										
499	4.980																																														-579.06024	550.18701	1885.03674										
500	4.990																																														-584.48511	550.49463	1890.78003										
501	5.000																																														-588.97675	550.39893	1899.83289										
502	5.010																																														-593.61115	551.66473	1906.65283										
503	5.020																																														-597.72321	551.84668	1912.84863										
504	5.030																																														-601.02863	551.08295	1917.64575										
505	5.040																																														-603.96613	551.69781	1926.31299										
506	5.050																																														-605.72192	550.85083	1932.19348										
507	5.060																																														-607.05450	550.36945	1940.00671										
508	5.070																																														-607.48340	549.43665	1946.00037										
509	5.080																																														-606.89929	549.12543	1947.79675										
510	5.090																																														-605.25476	548.50311	1953.55164										
511	5.100																																														-602.52130	546.73962	1957.99817										
512	5.110																																														-598.90076	545.55646	1965.02612										
513	5.120																																														-594.63251	544.29968	1965.99902										
514	5.130																																														-590.13947	544.33765	1972.02649										
515	5.140																																														-584.79272	543.09656	1973.33240										
516	5.150																																														-579.47620	544.54193	1976.93787										
517	5.160																																														-574.13025	544.88989	1978.97278										
518	5.170																																														-569.15106	546.61438	1981.09839										
519	5.180																																														-564.44098	547.22845	1985.25879										
520	5.190																																														-560.13861	547.33295	1989.92749										
521	5.200																																														-556.20190	548.32935	1993.34875										
522	5.210																																														-553.51929	550.45233	1989.98682										
523	5.220																																														-552.99445	550.75317	1994.26245										
524	5.230																																														-553.95831	549.35364	1996.82825										
525	5.240																																														-555.58911	548.82922	1997.27417										
526	5.250																																														-558.28607	549.60107	1996.41235										
527	5.260																																														-560.76349	548.07007	1999.52075										
528	5.270																																														-563.82196	546.14960	2002.28284										
529	5.280																																														-566.66394	547.05878	2000.16931										
